<?xml version="1.0" encoding="UTF-8"?> <svg xmlns="http://www.w3.org/2000/svg" width="312" height="203" viewBox="0 0 312 203" fill="none"> <path d="M126.059 30.4218C101.243 1.91413 63.7224 -11.1519 47.178 43.6975C-15.9269 28.8846 -6.59119 85.6205 22.3615 101.342C-28.4534 144.313 30.3382 191.323 47.178 170.361C47.178 206.745 108.333 218.028 126.059 176.454C153.476 220.613 188.692 194.853 202.872 176.454C231.825 216.98 258.119 181.811 266.982 164.226C316.615 182.952 321.046 132.085 300.366 110.076C327.25 56.2744 288.844 30.4218 266.982 43.6975C237.911 -2.41793 202.479 15.6323 188.396 30.4218C188.396 -12.5493 135.513 -7.65827 126.059 30.4218Z" fill="#61B0B7"></path> </svg> 