<?xml version="1.0" encoding="UTF-8"?> <svg xmlns="http://www.w3.org/2000/svg" width="364" height="253" viewBox="0 0 364 253" fill="none"> <path d="M200.505 214.799C222.994 253.099 263.026 275.737 292.851 214.55C361.62 244.215 362.401 175.781 332.643 151.691C399.044 111.116 341.646 44.4843 318.291 65.8224C325.598 23.1009 258.338 -2.03953 229.835 43.329C207.535 -13.8537 162.324 9.54462 142.506 28.3916C117.73 -24.8236 80.7729 11.3582 67.1648 30.2822C14.4981 -1.35719 -0.756207 57.5084 18.3347 87.3736C-23.0358 145.319 15.4361 183.143 42.9574 171.807C66.7459 231.608 110.654 217.304 129.635 202.677C121.004 253.133 182.109 257.674 200.505 214.799Z" fill="#CF8176"></path> </svg> 