<?xml version="1.0" encoding="UTF-8"?> <svg xmlns="http://www.w3.org/2000/svg" width="431" height="282" viewBox="0 0 431 282" fill="none"> <path d="M173.543 42.2609C139.182 2.65904 87.231 -15.4918 64.3234 60.7029C-23.0527 40.1255 -10.1263 118.941 29.962 140.78C-40.397 200.474 41.0067 265.779 64.3234 236.66C64.3234 287.202 149 302.876 173.543 245.123C211.505 306.467 260.265 270.683 279.9 245.123C319.988 301.42 356.395 252.565 368.667 228.137C437.39 254.15 443.526 183.488 414.891 152.913C452.116 78.1743 398.938 42.2609 368.667 60.7029C328.415 -3.3589 279.355 21.7158 259.856 42.2609C259.856 -17.433 186.634 -10.6386 173.543 42.2609Z" fill="white"></path> </svg> 