<?xml version="1.0" encoding="UTF-8"?> <svg xmlns="http://www.w3.org/2000/svg" width="364" height="201" viewBox="0 0 364 201" fill="none"> <path d="M147.069 29.8858C118.116 1.88041 74.3428 -10.9554 55.041 42.9276C-18.5814 28.3757 -7.68973 84.1121 26.0884 99.5562C-33.1956 141.77 44.0114 173.345 63.6579 152.753C63.6579 211.784 126.389 214.186 147.069 173.345C179.055 216.726 220.14 191.42 236.684 173.345C270.462 213.157 301.139 178.608 311.479 161.333C369.384 179.729 374.554 129.758 350.427 108.136C381.792 55.2829 336.985 29.8859 311.479 42.9276C277.563 -2.37532 236.225 15.3569 219.795 29.8858C219.795 -12.3282 158.099 -7.52333 147.069 29.8858Z" fill="white"></path> </svg> 