<?xml version="1.0" encoding="UTF-8"?> <svg xmlns="http://www.w3.org/2000/svg" width="432" height="239" viewBox="0 0 432 239" fill="none"> <path d="M174.543 35.5359C140.182 2.23591 88.231 -13.0266 65.3234 51.0433C-22.0527 33.7403 -9.12627 100.014 30.962 118.378C-39.397 168.573 52.2333 206.117 75.55 181.632C75.55 251.823 150 254.679 174.543 206.117C212.505 257.699 261.265 227.609 280.9 206.117C320.988 253.455 357.395 212.374 369.667 191.834C438.39 213.707 444.526 154.29 415.891 128.58C453.116 65.7344 399.938 35.5359 369.667 51.0433C329.415 -2.82439 280.355 18.2602 260.856 35.5359C260.856 -14.6589 187.634 -8.94565 174.543 35.5359Z" fill="white"></path> </svg> 