<?xml version="1.0" encoding="UTF-8"?> <svg xmlns="http://www.w3.org/2000/svg" width="508" height="332" viewBox="0 0 508 332" fill="none"> <path d="M205.25 49.7539C164.844 3.1305 103.753 -18.2386 76.8155 71.4658C-25.9323 47.2399 -10.7318 140.03 36.409 165.741C-46.3279 236.019 49.3968 312.902 76.8155 278.62C76.8155 338.125 176.388 356.577 205.25 288.585C249.89 360.805 307.228 318.677 330.318 288.585C377.459 354.863 420.27 297.346 434.701 268.587C515.514 299.212 522.729 216.021 489.057 180.025C532.831 92.035 470.297 49.7539 434.701 71.4658C387.368 -3.95445 329.677 25.5661 306.747 49.7539C306.747 -20.524 220.643 -12.5248 205.25 49.7539Z" fill="white"></path> </svg> 