<?xml version="1.0" encoding="UTF-8"?> <svg xmlns="http://www.w3.org/2000/svg" width="233" height="129" viewBox="0 0 233 129" fill="none"> <path d="M94.1403 19.1805C75.6075 1.20683 47.5875 -7.03109 35.2323 27.5505C-11.8942 18.2113 -4.92227 53.9824 16.6994 63.8943C-21.2488 90.9869 28.1721 111.251 40.748 98.0354C40.748 135.921 80.9026 137.463 94.1403 111.251C114.615 139.093 140.914 122.852 151.504 111.251C173.126 136.802 192.762 114.629 199.381 103.542C236.446 115.348 239.756 83.2776 224.312 69.4009C244.389 35.4801 215.707 19.1805 199.381 27.5505C177.671 -1.52446 151.21 9.85591 140.693 19.1805C140.693 -7.91212 101.2 -4.82841 94.1403 19.1805Z" fill="white"></path> </svg> 