<?xml version="1.0" encoding="UTF-8"?> <svg xmlns="http://www.w3.org/2000/svg" width="142" height="78" viewBox="0 0 142 78" fill="none"> <path d="M57.3731 11.5975C46.0784 0.729712 29.0019 -4.25135 21.472 16.6585C-7.2488 11.0115 -2.99984 32.6405 10.1773 38.6338C-12.9499 55.0154 17.1693 67.2682 24.8336 59.2772C24.8336 82.1848 49.3054 83.1171 57.3731 67.2682C69.8511 84.1026 85.8788 74.2826 92.3329 67.2682C105.51 82.7175 117.477 69.3104 121.511 62.6068C144.1 69.7455 146.117 50.3539 136.705 41.9634C148.941 21.4531 131.461 11.5975 121.511 16.6585C108.28 -0.921766 92.1537 5.95939 85.7444 11.5975C85.7444 -4.78407 61.6758 -2.9195 57.3731 11.5975Z" fill="white"></path> </svg> 