<?xml version="1.0" encoding="UTF-8"?> <svg xmlns="http://www.w3.org/2000/svg" width="182" height="101" viewBox="0 0 182 101" fill="none"> <path d="M73.5345 15.0173C59.0582 0.944884 37.1714 -5.50496 27.5205 21.5706C-9.29071 14.2585 -3.84486 42.2653 13.0442 50.0258C-16.5978 71.2378 22.0057 87.1037 31.8289 76.7564C31.8289 106.419 63.1943 107.626 73.5345 87.1037C89.5274 108.902 110.07 96.1864 118.342 87.1037C135.231 107.109 150.569 89.7481 155.739 81.0678C184.692 90.3114 187.277 65.2019 175.213 54.3372C190.896 27.779 168.492 15.0173 155.739 21.5706C138.781 -1.19357 118.112 7.71664 109.898 15.0173C109.898 -6.19476 79.0493 -3.78038 73.5345 15.0173Z" fill="white"></path> </svg> 