<?xml version="1.0" encoding="utf-8"?>
<!-- Generator: Adobe Illustrator 15.0.0, SVG Export Plug-In . SVG Version: 6.00 Build 0)  -->
<!DOCTYPE svg PUBLIC "-//W3C//DTD SVG 1.1//EN" "http://www.w3.org/Graphics/SVG/1.1/DTD/svg11.dtd">
<svg version="1.1" id="Layer_1" xmlns="http://www.w3.org/2000/svg" xmlns:xlink="http://www.w3.org/1999/xlink" x="0px" y="0px"
	 width="300px" height="300px" viewBox="0 0 300 300" enable-background="new 0 0 300 300" xml:space="preserve">
<circle fill="#B2FB00" cx="150" cy="150" r="150">

</circle>
<g id="kotd">
<animateTransform attributeName="transform"
      attributeType="XML"
      type="rotate"
      from="0 150 150"
      to="360 150 150"
      dur="30s"
      repeatCount="indefinite" />
	<path d="M97.636,32.428l-4.31,19.473l18.863,6.223l-7.065,4.017L92.064,57.82l5.048,8.877l-5.269,2.995L77.247,44.021l5.269-2.995
		l5.079,8.933l2.976-13.514L97.636,32.428z"/>
	<path d="M133.066,52.893l-5.922,1.206l-5.896-28.936l5.922-1.207L133.066,52.893z"/>
	<path d="M175.215,53.793l-5.969-0.724l-10.664-20.318l-2.275,18.748l-6.016-0.73l3.557-29.316l5.969,0.724l10.666,20.303
		l2.273-18.733l6.016,0.73L175.215,53.793z"/>
	<path d="M206.787,68.923l-3.07-1.738l-1.297-0.734l-0.166-0.095c-0.104-0.058-0.197-0.129-0.285-0.216
		c-3.072-2.121-5.039-5.025-5.898-8.712c-0.859-3.686-0.355-7.181,1.514-10.481c0.033-0.057,0.064-0.112,0.096-0.168
		c0.031-0.056,0.062-0.111,0.096-0.167c1.869-3.301,4.605-5.531,8.211-6.69c3.604-1.158,7.107-0.97,10.512,0.565
		c0.113,0.04,0.221,0.088,0.324,0.146l0.166,0.095l1.299,0.735l0.459,0.261l-2.955,5.216l-0.223-0.126l-0.822-0.466
		c-0.455-0.258-0.891-0.455-1.305-0.591c-0.029-0.016-0.057-0.029-0.088-0.041c-0.031-0.012-0.061-0.025-0.088-0.041
		c-0.641-0.191-1.199-0.312-1.676-0.359c-0.084-0.023-0.146-0.034-0.184-0.031c-0.039,0.003-0.074,0.002-0.102-0.002
		c-0.029-0.003-0.061-0.008-0.092-0.015c-1.852-0.139-3.496,0.222-4.936,1.084c-1.439,0.86-2.58,2.036-3.424,3.523
		c-0.02,0.037-0.039,0.073-0.051,0.109c-0.016,0.035-0.029,0.066-0.045,0.095c-0.006,0.009-0.016,0.028-0.031,0.055
		c-0.018,0.028-0.029,0.052-0.041,0.07c-0.01,0.019-0.02,0.037-0.031,0.056c-0.006,0.009-0.016,0.028-0.031,0.056
		c-1.031,2.081-1.195,4.214-0.492,6.399s2.021,3.826,3.955,4.922l0.586,0.332l0.238,0.135l0.18,0.103l2.83-4.994l-2.971-1.683
		l2.953-5.217l8.23,4.661l-8.736,15.429L206.787,68.923z"/>
	<path d="M263.547,138.62c-2.023,0.458-3.984,0.508-5.885,0.149c-1.91-0.356-3.656-1.045-5.236-2.068
		c-1.598-1.008-2.971-2.302-4.117-3.883c-1.145-1.571-1.945-3.362-2.402-5.374c-0.455-2.012-0.504-3.968-0.146-5.868
		c0.354-1.921,1.039-3.688,2.055-5.298c1.012-1.632,2.293-3.013,3.846-4.143c1.592-1.149,3.383-1.95,5.373-2.401
		c1.98-0.449,3.926-0.496,5.838-0.139c1.895,0.337,3.666,1.026,5.316,2.066c1.623,1.023,3.008,2.32,4.152,3.891
		c1.143,1.561,1.943,3.347,2.398,5.358c0.463,2.043,0.512,4.02,0.146,5.934c-0.379,1.916-1.076,3.674-2.094,5.275
		c-1.01,1.587-2.314,2.963-3.914,4.125C267.314,137.376,265.537,138.168,263.547,138.62z M262.211,132.725
		c0.719-0.163,1.467-0.442,2.242-0.837c0.771-0.416,1.467-0.93,2.084-1.541c0.631-0.647,1.168-1.399,1.609-2.255
		c0.445-0.89,0.744-1.889,0.898-2.999c0.027-0.269,0.029-0.527,0.006-0.773c-0.023-0.148-0.035-0.291-0.039-0.427
		c-0.004-0.137-0.006-0.253-0.006-0.353c-0.008-0.085-0.023-0.367-0.043-0.845c-0.074-0.422-0.105-0.606-0.094-0.554
		c-0.133-0.584-0.35-1.187-0.656-1.808c-0.301-0.601-0.693-1.197-1.178-1.788c-0.523-0.616-1.096-1.138-1.719-1.566
		c-0.627-0.45-1.369-0.819-2.223-1.107c-1.057-0.353-2.031-0.499-2.928-0.438c-0.252,0.003-0.555,0.016-0.912,0.042
		c-0.287,0.032-0.594,0.085-0.916,0.158c-1.168,0.265-2.207,0.735-3.117,1.413c-0.906,0.633-1.67,1.448-2.289,2.443
		c-0.617,0.95-1.027,1.997-1.229,3.138c-0.232,1.148-0.217,2.307,0.047,3.475c0.254,1.115,0.725,2.159,1.418,3.131
		c0.658,0.925,1.469,1.694,2.43,2.309c0.951,0.618,1.988,1.035,3.111,1.251C259.812,133.027,260.98,133.004,262.211,132.725z"/>
	<path d="M264.99,167.657l-0.305,1.737l-0.973,5.558l-5.906-1.034l1.277-7.295l-11.59-2.029l1.039-5.938l17.498,3.063
		L264.99,167.657z M268.141,183.312l2.262-12.918l0.305-1.736l1.041-5.938l5.873,1.029l-3.605,20.591L268.141,183.312z"/>
	<path d="M204.893,259.822l8.078-5.166l-12.682-19.826l5.076-3.248l12.666,19.799l8.131-5.2l3.248,5.078l-21.285,13.614
		L204.893,259.822z"/>
	<path d="M152.611,249.408l5.871-0.958l1.953,11.978l13.434-2.189l-1.953-11.979l5.967-0.973l4.75,29.146l-5.963,0.973l-1.836-11.25
		l-13.354,2.178l1.834,11.249l-5.949,0.97L152.611,249.408z"/>
	<path d="M130.56,270.829l-1.36,5.839l-20.36-4.744l1.361-5.838c3.402,0.793,6.799,1.584,10.188,2.373
		C123.776,269.248,127.167,270.038,130.56,270.829z M115.541,243.164l20.36,4.744l-1.364,5.855
		c-3.394-0.791-6.784-1.582-10.172-2.371c-3.389-0.789-6.784-1.58-10.188-2.373L115.541,243.164z M133.231,259.369l-1.36,5.839
		c-2.176-0.507-4.354-1.015-6.535-1.522c-2.18-0.508-4.364-1.017-6.55-1.525l1.36-5.84c2.186,0.509,4.369,1.018,6.551,1.525
		C128.876,258.354,131.056,258.861,133.231,259.369z"/>
	<path d="M67.562,204.309l2.992,5.196l-5.195,2.992l-2.993-5.195l-0.521-0.903l-1.096-1.902l-0.473-0.82
		c-1.104-1.917-2.751-3.219-4.941-3.906s-4.325-0.512-6.404,0.525c-0.027,0.016-0.047,0.026-0.056,0.031
		c-0.056,0.032-0.101,0.052-0.133,0.059c-0.028,0.016-0.046,0.027-0.056,0.031c-0.027,0.018-0.058,0.034-0.09,0.053
		c-0.033,0.019-0.068,0.039-0.105,0.06c-1.48,0.854-2.646,2.004-3.498,3.45c-0.851,1.445-1.197,3.097-1.04,4.955
		c0.007,0.033,0.013,0.064,0.017,0.092c0.004,0.029,0.002,0.059-0.006,0.088c0.002,0.023,0.012,0.085,0.033,0.184
		c0.07,0.552,0.191,1.105,0.363,1.66c0.016,0.027,0.029,0.057,0.041,0.087c0.011,0.03,0.024,0.06,0.04,0.087
		c0.135,0.404,0.337,0.842,0.609,1.314l0.472,0.82l1.097,1.903l0.521,0.903l2.992,5.195l-5.195,2.992l-2.992-5.195l-1.753-3.043
		l-0.753-1.306c-0.111-0.194-0.195-0.362-0.252-0.503c-1.544-3.365-1.752-6.859-0.625-10.48s3.334-6.379,6.622-8.273
		c0.056-0.031,0.11-0.063,0.167-0.096c0.055-0.031,0.111-0.064,0.166-0.096c3.289-1.895,6.781-2.42,10.479-1.578
		c3.699,0.844,6.612,2.779,8.739,5.809c0.092,0.096,0.167,0.194,0.226,0.296l0.096,0.167l0.753,1.306L67.562,204.309z"/>
	<path d="M50.51,147.866l0.808,6.62l-0.837,0.555l-12.003,7.521l-1.532,0.946l5.032,1.663l6.313,2.104l4.78,1.598l0.805,6.588
		l-31.078-10.229L50.51,147.866z"/>
	<path d="M31.411,99.568l14.825,16.122l10.24,3.077l-1.734,5.773l-10.211-3.068l-21.295,5.302l2.016-6.709l13.604-3.378
		l-9.475-10.363L31.411,99.568z"/>
</g>

<g id="logo">
	<polygon fill="#020202" points="89.907,116.216 120.25,165.527 100.105,125.407 130.154,142.865 123.104,137.158 122.6,124.231 
		134.854,135.647 132.966,141.523 149.123,105.892 164.105,141.523 162.721,135.71 174.808,124.148 173.969,137.914 
		167.967,143.244 198.52,124.987 177.955,165.15 212.795,109.152 174.892,137.452 180.978,111.558 162.428,134.597 149.123,90.448 
		135.064,134.682 116.137,111.558 122.013,136.529 89.194,111.18 	"/>
	<circle fill="#020202" cx="209.767" cy="112.69" r="4.658"/>
	<circle fill="#020202" cx="179.928" cy="113.194" r="3.903"/>
	<circle fill="#020202" cx="117.102" cy="113.194" r="3.903"/>
	<circle fill="#020202" cx="89.655" cy="112.69" r="4.658"/>
	<circle fill="#020202" cx="148.956" cy="92.168" r="5.54"/>
	<polygon fill="#020202" points="115.549,150.419 149.207,170.9 182.445,150.419 149.375,176.943 	"/>
	<polygon fill="#020202" points="135.358,165.527 114.291,213.371 183.621,213.371 163.141,165.023 159.783,167.711 
		177.661,209.342 120.753,209.342 138.31,168.266 	"/>
</g>
</svg>
